<?xml version="1.0" standalone="no"?>
<!DOCTYPE svg PUBLIC "-//W3C//DTD SVG 20010904//EN"
 "http://www.w3.org/TR/2001/REC-SVG-20010904/DTD/svg10.dtd">
<svg version="1.0" xmlns="http://www.w3.org/2000/svg"
 width="250.000000pt" height="250.000000pt" viewBox="0 0 250.000000 250.000000"
 preserveAspectRatio="xMidYMid meet">

<g transform="translate(0.000000,250.000000) scale(0.100000,-0.100000)"
fill="#000000" stroke="none">
<path d="M1361 2204 c-12 -9 -48 -29 -79 -45 -64 -32 -54 -40 10 -9 53 26 56
25 29 -4 -13 -13 -38 -27 -56 -30 -61 -12 -149 -64 -205 -122 l-55 -58 59 53
c61 54 142 100 211 120 22 7 90 16 150 22 147 12 163 15 180 29 26 22 16 29
-19 15 -32 -13 -98 -25 -219 -39 l-48 -6 37 45 c40 49 41 53 5 29z"/>
<path d="M1175 2192 c-6 -5 -48 -24 -95 -42 -47 -18 -89 -37 -94 -42 -21 -17
-28 -7 -10 13 19 22 19 22 -4 8 -13 -8 -32 -34 -43 -58 -24 -55 -24 -60 2 -27
36 46 223 138 231 114 2 -6 12 1 21 16 17 25 12 35 -8 18z"/>
<path d="M1726 2171 c-4 -5 -29 -15 -58 -22 -43 -11 -47 -15 -27 -20 22 -5 19
-8 -27 -32 -28 -14 -91 -33 -142 -42 -137 -23 -216 -56 -282 -115 -34 -31 -34
-31 20 5 30 19 91 47 135 62 103 33 270 37 418 9 57 -11 122 -17 158 -14 53 4
59 3 43 -9 -10 -7 -43 -22 -73 -34 -52 -20 -62 -20 -149 -9 -97 12 -182 6
-242 -16 l-35 -13 45 7 c25 4 95 7 155 6 112 -1 197 -18 330 -64 33 -12 92
-27 130 -34 l70 -12 -45 -24 c-25 -13 -63 -29 -85 -36 -28 -9 -33 -13 -17 -13
34 -1 87 24 161 76 90 63 89 62 30 47 -82 -21 -144 -17 -266 18 -103 29 -140
48 -96 48 29 0 119 50 154 86 l31 33 -43 -15 c-65 -23 -131 -21 -399 12 l-45
6 40 20 c58 29 113 68 119 84 6 16 0 19 -8 5z"/>
<path d="M1549 2129 c-10 -6 -4 -9 19 -9 17 0 32 2 32 4 0 9 -39 13 -51 5z"/>
<path d="M1115 2101 c-57 -21 -135 -59 -135 -66 0 -3 15 2 33 11 17 10 66 30
107 45 41 15 68 28 60 28 -8 0 -38 -8 -65 -18z"/>
<path d="M899 2073 c-13 -16 -12 -17 4 -4 9 7 17 15 17 17 0 8 -8 3 -21 -13z"/>
<path d="M838 2043 c-15 -16 -40 -57 -56 -93 -17 -36 -37 -74 -46 -85 -15 -19
-15 -19 -16 13 0 20 4 31 10 27 6 -3 10 4 9 17 0 22 -1 22 -12 4 -7 -10 -21
-32 -32 -50 -13 -20 -46 -44 -92 -66 -84 -42 -92 -49 -116 -89 -18 -31 -18
-31 3 -31 13 0 26 12 37 34 18 39 93 84 176 106 56 15 83 44 99 109 11 42 13
44 18 19 5 -27 5 -27 21 12 14 31 14 38 3 33 -17 -6 -9 23 14 50 24 27 8 20
-20 -10z"/>
<path d="M1695 1805 c164 -30 292 -97 464 -243 41 -34 85 -65 98 -68 13 -4 23
-11 23 -16 0 -6 -27 -9 -70 -6 -38 2 -70 3 -70 3 0 -1 15 -12 33 -25 17 -13
26 -17 19 -8 -11 14 -5 15 58 10 53 -3 82 0 117 13 l48 18 -55 12 c-73 15
-140 51 -249 132 -49 38 -105 77 -123 87 l-33 20 30 7 c27 6 26 6 -7 4 -22 -2
-61 7 -96 21 -65 26 -188 55 -230 53 -15 0 5 -7 43 -14z"/>
<path d="M1014 1767 c-57 -31 -123 -87 -102 -87 9 0 34 16 55 36 21 20 54 44
73 55 19 10 31 18 25 18 -5 0 -28 -10 -51 -22z"/>
<path d="M1480 1765 c0 -9 5 -15 11 -13 6 2 11 8 11 13 0 5 -5 11 -11 13 -6 2
-11 -4 -11 -13z"/>
<path d="M607 1693 c-4 -6 -3 -22 2 -35 6 -13 10 -16 11 -8 0 9 3 11 8 5 8
-12 83 -15 76 -3 -3 4 -17 8 -32 8 -31 0 -47 9 -54 30 -3 9 -7 10 -11 3z"/>
<path d="M1457 1668 c-21 -23 -33 -29 -52 -24 -18 5 -25 2 -25 -9 0 -19 -46
-49 -65 -41 -14 5 -14 2 0 -24 18 -34 31 -44 40 -30 3 6 24 19 45 30 66 34
155 23 211 -27 15 -13 19 -12 33 9 16 22 15 23 -14 31 -20 5 -32 16 -36 32 -5
19 -13 25 -34 25 -27 0 -60 26 -60 48 0 18 -12 12 -43 -20z m38 -38 c-5 -8
-11 -8 -17 -2 -6 6 -7 16 -3 22 5 8 11 8 17 2 6 -6 7 -16 3 -22z"/>
<path d="M355 1665 c-27 -13 -42 -24 -32 -24 10 -1 32 6 50 16 17 9 43 19 57
24 l25 7 -25 0 c-14 0 -47 -10 -75 -23z"/>
<path d="M1605 1680 c3 -5 8 -10 11 -10 2 0 4 5 4 10 0 6 -5 10 -11 10 -5 0
-7 -4 -4 -10z"/>
<path d="M486 1642 c-33 -19 -76 -56 -76 -65 0 -4 25 12 55 35 67 50 75 60 21
30z"/>
<path d="M238 1633 c7 -3 16 -2 19 1 4 3 -2 6 -13 5 -11 0 -14 -3 -6 -6z"/>
<path d="M1685 1620 c3 -5 8 -10 11 -10 2 0 4 5 4 10 0 6 -5 10 -11 10 -5 0
-7 -4 -4 -10z"/>
<path d="M108 1587 c-63 -32 -81 -58 -58 -81 8 -8 10 -7 5 5 -7 18 32 52 100
87 22 12 35 21 28 22 -6 0 -40 -15 -75 -33z"/>
<path d="M315 1590 c-3 -6 1 -7 9 -4 18 7 21 14 7 14 -6 0 -13 -4 -16 -10z"/>
<path d="M918 1593 c6 -2 18 -2 25 0 6 3 1 5 -13 5 -14 0 -19 -2 -12 -5z"/>
<path d="M840 1513 c-59 -68 -73 -96 -26 -55 36 32 84 57 93 49 2 -2 -5 -15
-16 -28 -18 -23 -51 -94 -51 -108 1 -3 8 8 16 24 34 65 69 107 108 130 l41 25
-35 -6 c-19 -4 -55 -15 -79 -25 -58 -25 -60 -24 -26 11 16 17 26 30 23 30 -4
0 -25 -21 -48 -47z"/>
<path d="M134 1536 c-41 -18 -48 -30 -27 -47 14 -12 17 -11 27 5 6 11 19 28
29 38 20 21 13 22 -29 4z"/>
<path d="M320 1540 c-9 -6 -10 -10 -3 -10 6 0 15 5 18 10 8 12 4 12 -15 0z"/>
<path d="M480 1533 c-8 -3 -26 -10 -39 -15 -13 -5 -21 -11 -19 -14 3 -2 27 4
54 15 42 17 46 29 4 14z"/>
<path d="M1133 1490 c-46 -19 -57 -83 -20 -118 24 -22 67 -30 67 -12 0 6 -9
10 -20 10 -30 0 -46 47 -28 80 8 14 22 24 31 24 9 -1 17 4 17 12 0 16 -15 17
-47 4z"/>
<path d="M1196 1462 c1 -20 2 -54 3 -74 1 -31 5 -38 21 -38 16 0 20 7 20 35 0
24 5 35 15 35 10 0 15 -11 15 -35 0 -24 5 -35 14 -35 11 0 15 18 18 75 3 70 2
75 -17 75 -16 0 -21 -6 -20 -27 0 -14 -6 -28 -12 -30 -9 -3 -13 6 -13 26 0 25
-4 31 -22 31 -20 0 -23 -5 -22 -38z"/>
<path d="M1330 1425 l0 -75 40 0 c22 0 40 4 40 9 0 5 -9 7 -20 4 -17 -5 -20 0
-20 30 0 29 4 36 23 40 l22 4 -22 2 c-30 1 -33 41 -3 41 11 0 20 5 20 10 0 6
-18 10 -40 10 l-40 0 0 -75z"/>
<path d="M1430 1425 c0 -68 2 -75 20 -75 16 0 20 7 21 38 l0 37 17 -24 c51
-74 51 -74 52 17 0 80 -1 82 -24 82 -20 0 -23 -4 -19 -27 l4 -28 -23 28 c-39
45 -48 36 -48 -48z"/>
<path d="M1568 1425 c3 -57 7 -75 18 -75 9 0 14 11 14 35 0 19 3 35 8 35 4 0
19 -19 34 -43 l28 -42 0 83 c0 75 -2 82 -20 82 -15 0 -20 -7 -20 -27 l-1 -28
-20 28 c-35 46 -44 35 -41 -48z"/>
<path d="M1714 1493 c-12 -8 -17 -41 -15 -105 1 -31 5 -38 21 -38 16 0 20 7
20 35 0 24 5 35 15 35 10 0 15 -11 15 -35 0 -25 4 -35 15 -35 13 0 15 13 13
73 l-3 72 -35 3 c-19 1 -40 -1 -46 -5z m56 -33 c0 -11 -7 -20 -15 -20 -8 0
-15 9 -15 20 0 11 7 20 15 20 8 0 15 -9 15 -20z"/>
<path d="M1830 1425 c0 -68 2 -75 20 -75 18 0 20 7 20 75 0 68 -2 75 -20 75
-18 0 -20 -7 -20 -75z"/>
<path d="M70 1471 c0 -5 9 -11 20 -14 24 -6 27 8 4 17 -21 8 -24 8 -24 -3z"/>
<path d="M315 1470 c-3 -5 -1 -10 4 -10 6 0 11 5 11 10 0 6 -2 10 -4 10 -3 0
-8 -4 -11 -10z"/>
<path d="M2151 1374 c26 -35 75 -121 109 -190 33 -70 70 -140 81 -155 25 -36
6 -40 -35 -8 l-26 21 10 -24 c14 -30 68 -238 62 -238 -2 0 -22 20 -44 45 -45
52 -61 57 -52 18 8 -34 56 -145 60 -140 2 2 -6 27 -17 56 -11 30 -18 58 -17
63 4 10 55 -42 95 -97 l22 -30 -15 45 c-24 69 -62 250 -53 250 4 0 18 -4 31
-9 13 -4 36 -11 51 -15 28 -7 28 -6 -17 49 -25 31 -71 102 -102 158 -31 56
-70 123 -85 150 -16 26 -29 51 -29 56 0 5 21 3 47 -5 25 -8 62 -14 82 -14 l36
1 -38 13 c-20 8 -45 20 -55 27 -16 13 -16 13 -2 -5 14 -18 13 -18 -10 -11 -14
4 -50 18 -81 30 l-56 23 48 -64z"/>
<path d="M111 1404 c0 -11 3 -14 6 -6 3 7 2 16 -1 19 -3 4 -6 -2 -5 -13z"/>
<path d="M468 1413 c12 -2 32 -2 45 0 12 2 2 4 -23 4 -25 0 -35 -2 -22 -4z"/>
<path d="M558 1403 c6 -2 18 -2 25 0 6 3 1 5 -13 5 -14 0 -19 -2 -12 -5z"/>
<path d="M618 1393 c7 -3 16 -2 19 1 4 3 -2 6 -13 5 -11 0 -14 -3 -6 -6z"/>
<path d="M889 1374 c-7 -9 -15 -25 -16 -37 -4 -25 -1 -22 20 21 17 35 16 40
-4 16z"/>
<path d="M539 1332 c6 -12 16 -24 22 -28 8 -4 8 -1 0 14 -6 12 -16 24 -22 28
-8 4 -8 1 0 -14z"/>
<path d="M861 1294 c0 -11 3 -14 6 -6 3 7 2 16 -1 19 -3 4 -6 -2 -5 -13z"/>
<path d="M1000 1278 c0 -18 18 -84 40 -146 22 -62 40 -118 40 -124 0 -6 -16
-9 -40 -6 -38 3 -40 2 -40 -25 l0 -28 73 3 c69 3 72 4 75 28 2 20 -44 171 -84
274 -7 17 -3 19 39 14 46 -5 47 -5 46 21 -1 17 -3 20 -6 9 -3 -13 -14 -18 -37
-18 -19 0 -48 -3 -66 -7 -30 -6 -33 -4 -28 15 4 12 2 22 -3 22 -5 0 -9 -15 -9
-32z"/>
<path d="M1178 1136 c3 -202 -8 -186 130 -186 77 0 82 1 67 16 -14 14 -16 39
-13 179 2 90 0 161 -4 158 -5 -2 -8 -11 -8 -19 0 -8 -9 -14 -20 -14 -11 0 -20
6 -20 14 0 8 -3 17 -7 19 -5 3 -7 -64 -5 -149 l3 -154 -26 0 -26 0 3 155 c2
85 0 155 -4 155 -5 0 -8 -9 -8 -20 0 -15 -7 -20 -25 -20 -18 0 -25 5 -25 20 0
11 -3 20 -7 20 -5 0 -7 -78 -5 -174z"/>
<path d="M1405 1130 l0 -180 50 0 c38 0 46 3 37 12 -7 7 -12 44 -12 96 0 71 2
83 14 73 19 -16 57 0 89 39 29 34 33 59 15 93 -15 29 -39 46 -63 46 -14 0 -11
-4 13 -14 17 -8 32 -16 32 -19 0 -2 -36 -4 -80 -3 -70 0 -80 3 -80 19 0 10 -3
18 -7 18 -5 0 -8 -81 -8 -180z m135 109 c16 -29 -4 -69 -35 -69 -23 0 -25 4
-25 43 0 24 3 46 6 49 10 10 44 -4 54 -23z"/>
<path d="M1638 1251 c2 -34 -1 -67 -8 -81 -9 -16 -9 -25 -1 -33 15 -15 14
-160 -1 -175 -9 -9 6 -12 70 -12 l82 0 0 29 c0 28 -1 29 -40 24 l-41 -6 3 69
c3 67 4 69 31 72 15 2 32 12 37 22 9 17 6 19 -27 22 -37 3 -38 4 -38 43 0 40
0 40 38 39 33 -1 37 2 37 22 0 13 -5 24 -11 24 -5 0 -7 -5 -4 -10 7 -12 -4
-16 -67 -25 -39 -5 -48 -3 -48 9 0 8 -4 17 -8 20 -5 3 -6 -21 -4 -53z"/>
<path d="M1808 1143 c2 -115 -1 -169 -9 -179 -10 -12 -4 -14 37 -14 l49 0 -2
87 -3 88 43 -87 42 -87 45 0 c29 -1 40 2 31 8 -13 8 -81 154 -81 175 0 5 10
20 22 33 32 35 30 89 -6 119 -15 13 -37 24 -49 23 -16 -1 -14 -3 11 -10 54
-16 36 -27 -43 -26 -54 0 -75 4 -75 13 0 7 -3 15 -7 17 -5 3 -7 -69 -5 -160z
m106 117 c44 -16 31 -90 -16 -90 -15 0 -18 9 -18 50 0 28 2 50 4 50 3 0 16 -4
30 -10z"/>
<path d="M795 1225 c8 -22 14 -51 15 -64 0 -13 3 -22 6 -18 9 9 -6 83 -21 104
-12 15 -12 11 0 -22z"/>
<path d="M822 1080 c0 -19 2 -27 5 -17 2 9 2 25 0 35 -3 9 -5 1 -5 -18z"/>
<path d="M668 899 c-4 -26 -5 -71 -1 -99 4 -35 3 -51 -4 -47 -13 8 -39 -21
-47 -53 -6 -25 -6 -25 5 -2 7 12 20 22 29 22 19 0 64 -75 54 -91 -19 -31 -20
-84 -4 -180 10 -57 18 -88 19 -69 0 19 -4 62 -9 95 -15 94 5 163 28 98 25 -68
9 6 -20 94 -23 69 -34 124 -38 188 -5 82 -6 86 -12 44z"/>
<path d="M823 902 c15 -16 17 -49 17 -261 0 -209 -2 -245 -17 -267 -15 -24 -9
-22 80 22 79 40 93 50 80 59 -13 10 -14 26 -8 101 l7 89 42 -85 c22 -47 41
-86 42 -88 0 -1 32 10 71 24 69 26 70 27 52 45 -20 20 -99 171 -99 189 0 14
75 127 108 163 l26 27 -77 0 c-53 0 -77 -4 -77 -12 0 -6 -19 -41 -42 -77 l-43
-65 -3 58 c-2 44 1 63 14 77 17 19 14 19 -86 19 -99 0 -102 -1 -87 -18z m151
-7 c-5 -11 -22 -15 -64 -15 -42 0 -59 4 -64 15 -4 12 6 15 64 15 58 0 68 -3
64 -15z m206 0 c-8 -9 -30 -15 -56 -15 -32 0 -44 4 -44 15 0 12 13 15 56 15
49 0 55 -2 44 -15z"/>
<path d="M1268 908 c17 -17 4 -337 -14 -359 -12 -13 -2 -12 66 5 63 16 77 23
68 34 -16 19 -3 313 14 324 7 4 -22 8 -66 8 -61 0 -77 -3 -68 -12z m110 -10
c-7 -20 -84 -22 -91 -4 -5 13 3 16 44 16 36 0 49 -4 47 -12z"/>
<path d="M1450 905 c17 -20 6 -291 -13 -314 -10 -12 -9 -14 6 -8 10 4 42 10
70 13 l52 6 -3 87 -4 86 49 -55 c26 -30 65 -73 86 -95 l38 -40 -3 155 c-2 85
1 161 5 168 6 9 -8 12 -59 12 -58 0 -65 -2 -54 -15 8 -10 10 -28 5 -52 l-7
-38 -46 53 c-43 48 -50 52 -91 52 -38 0 -42 -2 -31 -15z m84 -10 c4 -12 -3
-15 -29 -15 -24 0 -35 5 -35 15 0 10 10 15 29 15 16 0 31 -6 35 -15z m180 0
c-4 -9 -19 -15 -40 -15 -24 0 -34 5 -34 15 0 11 11 15 40 15 31 0 38 -3 34
-15z"/>
<path d="M1850 904 c-80 -35 -114 -99 -91 -174 20 -69 91 -112 219 -134 l32
-5 0 53 c0 30 3 61 6 70 5 13 -2 16 -40 16 -46 0 -46 0 -46 -35 0 -39 -13 -44
-46 -17 -45 36 -57 98 -29 152 18 34 45 44 110 38 43 -3 45 -2 45 24 0 28 -1
28 -62 28 -35 -1 -79 -8 -98 -16z m150 -9 c0 -12 -16 -15 -87 -14 -83 1 -86 1
-58 14 43 20 145 20 145 0z"/>
<path d="M2047 913 c-14 -13 -6 -43 37 -155 67 -172 66 -160 12 -144 -45 14
-46 13 -46 -8 0 -18 12 -25 75 -45 41 -12 78 -24 82 -24 20 -4 10 49 -32 180
-25 77 -45 144 -45 148 0 4 16 5 35 3 33 -4 35 -2 35 24 l0 28 -73 0 c-41 0
-77 -3 -80 -7z m143 -16 c0 -9 -20 -13 -70 -14 -65 -1 -80 4 -63 20 3 4 35 7
70 7 45 0 63 -4 63 -13z"/>
<path d="M577 700 c-3 -11 -1 -23 4 -26 5 -3 9 6 9 20 0 31 -6 34 -13 6z"/>
<path d="M521 635 c-1 -33 4 -67 9 -75 7 -11 8 -5 4 19 -5 21 -3 36 5 40 9 6
8 16 -3 42 l-15 34 0 -60z"/>
<path d="M281 620 c0 -14 8 -36 19 -50 l20 -25 -14 35 c-7 19 -16 42 -19 50
-3 9 -6 5 -6 -10z"/>
<path d="M381 628 c-2 -31 23 -107 36 -112 9 -4 9 2 -2 27 -7 18 -18 48 -23
67 -6 19 -10 27 -11 18z"/>
<path d="M460 583 c0 -11 7 -20 15 -20 12 0 12 3 3 16 -7 9 -14 18 -15 20 -2
2 -3 -5 -3 -16z"/>
<path d="M327 571 c3 -11 11 -21 19 -21 7 0 22 -17 33 -37 11 -21 20 -34 21
-30 0 16 -28 62 -53 86 -25 22 -26 23 -20 2z"/>
<path d="M440 562 c0 -5 7 -15 15 -22 8 -7 15 -9 15 -6 0 4 -7 14 -15 22 -8 9
-15 11 -15 6z"/>
<path d="M440 493 c0 -4 5 -15 10 -23 8 -13 10 -13 10 2 0 9 -4 20 -10 23 -5
3 -10 3 -10 -2z"/>
<path d="M711 324 c0 -11 3 -14 6 -6 3 7 2 16 -1 19 -3 4 -6 -2 -5 -13z"/>
</g>
</svg>
