<?xml version="1.0" standalone="no"?>
<!DOCTYPE svg PUBLIC "-//W3C//DTD SVG 20010904//EN"
 "http://www.w3.org/TR/2001/REC-SVG-20010904/DTD/svg10.dtd">
<svg version="1.0" xmlns="http://www.w3.org/2000/svg"
 width="250.000000pt" height="250.000000pt" viewBox="0 0 250.000000 250.000000"
 preserveAspectRatio="xMidYMid meet">
<metadata>
Created by potrace 1.16, written by Peter Selinger 2001-2019
</metadata>
<g transform="translate(0.000000,250.000000) scale(0.100000,-0.100000)"
fill="#000000" stroke="none">
<path d="M1375 2228 c-40 -30 -131 -76 -193 -96 l-32 -11 40 48 c47 55 53 81
13 51 -16 -11 -67 -35 -115 -54 -77 -30 -87 -32 -78 -15 6 10 8 19 5 19 -7 0
-62 -39 -89 -63 -11 -10 -26 -15 -33 -13 -20 8 -101 -83 -123 -138 -15 -37
-19 -42 -14 -18 9 50 -12 39 -54 -28 -33 -53 -45 -63 -113 -95 -58 -27 -84
-46 -104 -75 -19 -28 -35 -40 -51 -40 -13 0 -52 -11 -86 -24 -35 -13 -88 -28
-120 -34 -63 -12 -153 -51 -185 -81 -27 -25 -21 -49 22 -94 18 -19 35 -45 37
-57 2 -18 10 -23 34 -24 29 -1 30 0 17 24 -7 14 -13 31 -13 38 0 6 -6 12 -12
12 -9 0 -9 3 -3 8 6 4 21 22 34 40 12 17 30 32 39 32 18 0 48 38 38 48 -3 3
-14 -2 -23 -11 -10 -8 -21 -16 -25 -17 -44 -5 -72 -17 -93 -38 -17 -17 -25
-20 -25 -10 0 41 146 114 221 109 22 -1 51 6 72 19 19 11 62 25 94 31 55 10
62 14 82 49 16 28 37 46 76 64 29 14 60 26 67 26 7 0 32 9 56 20 32 14 47 29
58 56 12 28 18 34 24 23 10 -15 8 -18 29 51 6 19 20 46 31 60 l20 25 0 -22 c0
-13 2 -23 3 -23 2 0 27 23 55 50 51 50 76 63 66 35 -4 -8 -10 -15 -14 -15 -4
0 -28 -19 -54 -41 -52 -46 -89 -109 -84 -142 3 -18 7 -15 27 21 34 66 98 124
161 147 30 11 59 22 65 24 5 2 -22 -27 -61 -65 -66 -64 -116 -134 -96 -134 5
0 33 26 63 58 88 95 184 149 303 171 75 14 147 15 126 1 -24 -15 -7 -20 35
-10 22 5 56 9 75 9 l35 0 -25 -13 c-14 -8 -74 -23 -135 -35 -125 -24 -216 -65
-276 -125 -36 -35 -50 -66 -31 -66 5 0 21 14 38 31 33 36 148 93 217 109 70
15 261 13 361 -4 49 -9 109 -16 135 -17 l46 0 -55 -20 c-50 -18 -62 -19 -132
-8 -129 19 -294 -9 -349 -60 -28 -26 -18 -26 52 -2 30 10 56 18 59 19 3 0 40
3 83 7 112 11 238 -11 404 -69 40 -13 94 -28 120 -32 l48 -7 -40 -18 c-22 -10
-72 -25 -112 -34 -69 -15 -73 -15 -111 4 -73 37 -193 61 -306 61 -57 0 -107
-4 -110 -9 -3 -4 37 -11 88 -14 128 -9 213 -31 326 -84 97 -47 126 -66 241
-163 36 -30 75 -61 85 -68 16 -11 13 -12 -29 -9 -38 4 -65 17 -137 65 -49 34
-91 58 -94 54 -5 -9 81 -80 172 -141 34 -24 62 -45 62 -47 0 -6 -103 36 -118
48 -7 6 -15 8 -18 5 -4 -3 19 -34 50 -69 42 -46 77 -103 136 -221 64 -129 74
-155 54 -143 -38 26 -46 19 -26 -21 11 -21 25 -63 32 -93 6 -30 14 -64 17 -74
5 -17 1 -16 -26 7 -45 38 -64 36 -56 -6 17 -78 81 -208 140 -282 39 -48 40
-21 1 42 -36 58 -90 182 -83 189 2 2 17 -15 33 -37 16 -22 39 -52 52 -66 12
-14 22 -30 22 -34 0 -5 4 -9 9 -9 10 0 3 39 -10 56 -11 14 -70 256 -64 262 3
3 22 0 44 -6 21 -7 50 -12 64 -12 24 0 22 3 -28 53 -29 30 -63 73 -76 96 -13
24 -31 55 -39 69 -33 58 -100 184 -100 187 0 3 35 2 79 -2 89 -7 117 8 48 26
-23 6 -60 22 -82 35 l-40 25 65 1 c41 0 80 7 106 19 59 27 64 41 15 41 -39 0
-61 7 -131 39 -42 20 -147 89 -156 103 -4 5 -33 27 -66 48 l-60 37 67 13 c51
10 84 24 134 58 36 25 83 57 105 71 34 23 36 26 17 29 -12 2 -36 -1 -53 -7
-74 -26 -158 -24 -258 4 -52 15 -97 29 -99 31 -2 2 11 10 30 18 49 21 121 79
142 115 10 17 17 31 15 31 -2 0 -25 -11 -52 -25 -59 -30 -147 -33 -296 -10
-52 8 -99 15 -105 15 -5 1 6 9 26 20 37 19 114 98 105 107 -2 3 -29 -7 -60
-21 -30 -14 -62 -26 -71 -26 -14 0 -14 3 0 31 21 40 14 46 -22 20 -29 -20
-166 -51 -231 -51 l-36 0 26 28 c26 28 52 71 46 77 -2 2 -21 -10 -43 -27z"/>
<path d="M735 1777 c-16 -5 -85 -38 -152 -72 -70 -36 -141 -65 -169 -70 -52
-7 -124 -39 -124 -55 0 -12 48 -2 74 15 11 8 29 15 40 15 18 0 19 -1 1 -20
-10 -11 -26 -20 -36 -20 -10 0 -21 -4 -24 -10 -3 -5 -15 -10 -26 -10 -10 0
-19 -4 -19 -9 0 -5 -13 -11 -30 -14 -16 -4 -30 -11 -30 -17 0 -13 47 -13 55 0
3 6 15 10 26 10 10 0 19 5 19 10 0 6 9 10 19 10 11 0 23 5 26 10 4 6 11 8 16
4 5 -3 27 10 47 28 21 19 59 49 86 67 39 27 50 31 57 20 14 -22 11 -29 -11
-29 -34 0 -22 -15 22 -27 34 -9 46 -9 62 3 11 8 40 14 63 14 24 0 43 4 43 8 0
11 -60 32 -91 32 -13 0 -31 5 -39 10 -13 9 -11 14 13 35 15 13 44 29 65 35 20
5 43 14 51 19 21 14 -1 19 -34 8z"/>
<path d="M1473 1779 c-9 -9 -9 -16 0 -30 15 -24 -13 -84 -43 -94 -25 -8 -53
12 -46 32 7 18 -24 30 -34 13 -5 -9 -3 -18 7 -25 21 -16 10 -62 -18 -70 -23
-8 -52 12 -45 31 3 7 -2 15 -10 18 -23 9 -24 8 -24 -14 0 -11 4 -20 8 -20 5 0
21 -22 36 -50 28 -52 45 -61 67 -34 22 26 66 44 110 44 43 0 129 -34 129 -51
0 -24 32 -5 52 31 13 22 29 40 36 40 6 0 12 9 12 21 0 14 -5 19 -17 17 -10 -2
-18 -12 -18 -23 0 -24 -39 -33 -61 -15 -19 16 -18 60 1 60 9 0 15 9 15 21 0
14 -5 19 -17 17 -10 -2 -18 -12 -18 -23 0 -26 -46 -32 -69 -10 -22 22 -31 64
-18 85 10 17 -1 40 -18 40 -3 0 -11 -5 -17 -11z"/>
<path d="M960 1620 c-30 -11 -65 -19 -77 -19 -13 -1 -23 -4 -23 -8 0 -5 -33
-7 -72 -5 -105 4 -328 -37 -383 -72 -11 -6 -39 -18 -62 -24 -40 -12 -61 -42
-30 -42 18 0 77 29 77 38 0 4 17 8 38 8 22 1 52 9 69 17 41 22 211 54 308 59
l80 5 -52 -54 c-50 -53 -82 -107 -69 -120 3 -3 22 10 41 30 20 20 45 41 56 47
19 11 18 8 -5 -37 -22 -44 -47 -142 -46 -182 1 -12 5 -11 19 6 18 21 18 20 24
-80 6 -107 12 -137 29 -137 7 0 8 16 4 43 -23 150 -21 171 29 290 9 22 -17 24
-35 2 -18 -22 -24 -11 -8 17 30 52 71 99 109 120 39 22 57 58 22 43 -10 -4
-34 -11 -54 -15 -19 -3 -42 -10 -50 -15 -8 -5 -3 4 10 18 14 15 41 32 61 37
20 5 45 19 55 30 23 25 11 25 -65 0z"/>
<path d="M1134 1499 c-55 -16 -72 -92 -29 -134 24 -25 26 -25 203 -25 l179 0
-5 25 c-6 34 2 31 27 -7 l20 -33 -267 -5 -267 -5 -3 -28 c-3 -23 39 -169 76
-266 4 -11 -3 -13 -36 -8 l-42 5 0 -34 0 -35 83 3 c79 3 82 4 85 28 2 14 -17
83 -41 153 l-44 127 24 0 c13 0 33 -5 44 -10 17 -10 19 -7 21 22 1 18 5 -46 8
-142 l5 -175 170 -3 c134 -2 167 0 157 10 -7 7 -12 40 -12 82 0 68 1 71 24 72
33 2 74 32 92 67 23 44 11 92 -31 120 -39 27 -36 37 10 37 30 0 31 2 27 33
l-4 32 26 -37 c32 -46 32 -48 1 -48 -25 0 -33 -14 -15 -25 14 -9 12 -99 -2
-131 -10 -22 -10 -28 0 -32 15 -5 17 -148 2 -157 -30 -19 3 -25 133 -25 l143
0 -4 73 -4 72 31 -60 c17 -33 31 -66 31 -72 0 -9 18 -13 55 -13 l54 0 -23 34
c-12 19 -33 61 -46 95 -21 57 -21 61 -5 77 45 45 38 116 -14 147 -23 14 -54
17 -160 17 -81 0 -131 4 -131 10 0 6 41 10 103 10 l102 0 0 83 0 84 -135 -1
c-114 -1 -135 -3 -132 -16 2 -11 -1 -11 -11 3 -11 13 -29 17 -72 17 -50 0 -56
-2 -51 -17 6 -16 6 -16 -12 0 -16 14 -40 17 -163 16 -79 0 -158 -5 -175 -10z
m665 -366 c-1 -93 -4 -156 -6 -140 -4 25 -7 27 -44 21 l-39 -7 0 62 c0 58 1
61 24 61 22 0 56 32 56 52 0 5 -18 8 -40 8 -39 0 -40 1 -40 36 l0 37 40 -7
c38 -6 40 -5 40 19 0 14 2 25 5 25 3 0 4 -75 4 -167z"/>
<path d="M760 1276 c0 -2 9 -23 20 -47 22 -49 25 -74 9 -63 -8 5 -9 -16 -4
-73 5 -59 2 -102 -10 -163 -18 -90 -14 -114 10 -56 13 31 18 36 30 26 12 -10
15 -55 15 -257 0 -232 -1 -246 -21 -274 -11 -16 -16 -29 -11 -29 6 0 59 23
117 52 94 45 105 53 86 62 -19 8 -21 17 -21 90 l1 81 34 -65 c19 -36 34 -73
35 -82 0 -22 10 -22 58 -2 75 32 230 76 360 102 110 21 131 28 117 38 -12 9
-15 25 -13 69 l3 57 70 -80 c39 -45 76 -82 83 -82 11 0 12 30 6 160 -6 143 -5
160 10 166 38 14 10 24 -69 24 -86 0 -97 -4 -69 -24 10 -8 14 -23 12 -45 l-3
-33 -40 50 -40 51 -232 1 -231 0 -21 -42 c-12 -24 -30 -54 -41 -68 l-20 -25 0
47 c0 37 5 51 20 60 11 7 20 16 20 20 0 5 -51 8 -113 8 l-113 0 4 36 c3 22 7
31 12 24 20 -32 26 75 10 173 -11 72 -33 117 -56 117 -8 0 -14 -2 -14 -4z
m498 -375 c11 -7 12 -40 7 -172 -8 -172 -16 -202 -54 -192 -17 4 -111 169
-111 194 0 16 100 158 119 169 20 12 23 12 39 1z m190 -140 c3 -149 -2 -171
-39 -171 -18 0 -19 10 -19 141 0 144 8 183 38 177 15 -3 17 -22 20 -147z"/>
<path d="M685 1014 c-21 -51 -36 -156 -29 -202 5 -31 3 -40 -10 -45 -9 -4 -23
-21 -31 -39 -8 -19 -14 -26 -15 -15 0 32 -28 17 -38 -20 -9 -34 -11 -36 -17
-15 -4 12 -14 22 -21 22 -11 0 -14 -17 -14 -67 l-1 -68 -22 28 c-25 30 -37 34
-37 12 0 -8 -7 -15 -15 -15 -8 0 -15 -6 -16 -12 0 -7 -6 5 -13 27 -7 24 -19
41 -29 43 -18 4 -18 -6 0 -73 5 -18 4 -19 -13 -5 -10 8 -23 21 -27 28 -4 6
-15 12 -22 12 -8 0 -15 6 -15 14 0 8 -7 16 -15 20 -27 10 -17 -43 17 -95 32
-50 48 -61 48 -33 0 8 5 12 10 9 6 -3 10 -26 10 -51 0 -53 14 -57 31 -7 l12
36 18 -24 c10 -13 19 -37 19 -53 0 -23 3 -27 11 -19 14 14 16 59 5 91 -7 21
-6 23 14 17 19 -6 21 -5 11 13 -9 18 -8 19 12 14 12 -3 32 -12 45 -20 28 -18
40 -9 18 13 -20 20 -21 36 -2 29 11 -4 14 5 12 40 -2 45 -2 46 21 31 21 -14
23 -14 24 5 2 34 17 70 29 70 4 0 17 -14 28 -32 18 -29 19 -34 6 -72 -12 -33
-12 -52 -2 -110 7 -39 12 -113 12 -163 0 -51 2 -93 4 -93 1 0 10 16 18 35 17
40 18 128 3 208 -14 77 2 109 21 41 11 -39 15 -44 21 -26 8 21 -9 100 -50 237
-24 80 -26 162 -7 253 15 68 5 82 -19 26z"/>
<path d="M1835 906 c-65 -30 -89 -66 -89 -131 0 -90 62 -153 173 -175 31 -7
66 -14 79 -17 21 -5 22 -2 22 60 0 40 5 69 12 73 17 11 -18 22 -69 23 -41 1
-42 1 -45 -36 l-3 -38 -32 32 c-43 41 -47 107 -9 142 22 21 33 23 85 19 l61
-4 0 38 0 38 -67 0 c-50 0 -81 -6 -118 -24z"/>
<path d="M2042 918 c-18 -18 -16 -31 35 -164 25 -68 43 -127 40 -131 -4 -3
-23 1 -42 10 l-35 17 0 -38 0 -37 85 -23 c46 -13 89 -21 95 -17 16 10 7 49
-40 198 -21 67 -37 124 -34 126 3 3 18 0 34 -6 l30 -11 0 44 0 44 -78 0 c-47
0 -83 -5 -90 -12z"/>
</g>
</svg>
